<svg xmlns="http://www.w3.org/2000/svg" viewBox="0 0 96 96">
  <defs>
    <linearGradient id="tile" x1="0" y1="0" x2="1" y2="1">
      <stop offset="0%" stop-color="#18181b"/>
      <stop offset="100%" stop-color="#09090b"/>
    </linearGradient>
    <linearGradient id="crust" x1="0" y1="0" x2="1" y2="1">
      <stop offset="0%" stop-color="#efb45a"/>
      <stop offset="100%" stop-color="#b7702f"/>
    </linearGradient>
    <linearGradient id="cheese" x1="0" y1="0" x2="1" y2="1">
      <stop offset="0%" stop-color="#ffe89a"/>
      <stop offset="100%" stop-color="#e4b23a"/>
    </linearGradient>
    <linearGradient id="sauce" x1="0" y1="0" x2="1" y2="1">
      <stop offset="0%" stop-color="#c64a22"/>
      <stop offset="100%" stop-color="#8f2f17"/>
    </linearGradient>
  </defs>

  <rect x="7" y="7" width="82" height="82" rx="18" fill="url(#tile)"/>
  <rect x="7" y="7" width="82" height="82" rx="18" fill="none" stroke="#d89a3e" stroke-width="2" opacity="0.8"/>

  <circle cx="48" cy="48" r="31" fill="none" stroke="url(#crust)" stroke-width="10"/>
  <circle cx="48" cy="48" r="25" fill="none" stroke="url(#sauce)" stroke-width="4" opacity="0.9"/>
  <circle cx="48" cy="48" r="23" fill="url(#cheese)"/>

  <g stroke="#7b5225" stroke-width="2.4" stroke-linecap="round" opacity="0.8">
    <path d="M48 25.5v10"/>
    <path d="M70.5 48h-10"/>
    <path d="M37.2 68.3l5-8.6"/>
    <path d="M27.5 37.2l8.7 5"/>
  </g>

  <circle cx="48" cy="48" r="12.5" fill="#0b0b0c"/>
  <circle cx="48" cy="48" r="13.5" fill="none" stroke="#3b2a1e" stroke-width="2"/>

  <circle cx="61.5" cy="38.5" r="3.5" fill="#b63c2a" stroke="#8a281c" stroke-width="1"/>
  <circle cx="35" cy="55" r="3.1" fill="#b63c2a" stroke="#8a281c" stroke-width="1"/>
</svg>
