<svg xmlns="http://www.w3.org/2000/svg" viewBox="0 0 96 96">
  <defs>
    <linearGradient id="tile" x1="0" y1="0" x2="1" y2="1">
      <stop offset="0%" stop-color="#18181b"/>
      <stop offset="100%" stop-color="#09090b"/>
    </linearGradient>
    <linearGradient id="crust" x1="0" y1="0" x2="1" y2="1">
      <stop offset="0%" stop-color="#d6a84f"/>
      <stop offset="100%" stop-color="#8f6530"/>
    </linearGradient>
    <linearGradient id="cheese" x1="0" y1="0" x2="1" y2="1">
      <stop offset="0%" stop-color="#e0bf68"/>
      <stop offset="100%" stop-color="#c99746"/>
    </linearGradient>
    <linearGradient id="sauce" x1="0" y1="0" x2="1" y2="1">
      <stop offset="0%" stop-color="#c56f32"/>
      <stop offset="100%" stop-color="#9a4f27"/>
    </linearGradient>
  </defs>

  <rect x="7" y="7" width="82" height="82" rx="18" fill="url(#tile)"/>
  <rect x="7" y="7" width="82" height="82" rx="18" fill="none" stroke="#d6a84f" stroke-width="1.5" opacity="0.55"/>

  <path d="M48 20a28 28 0 1 1 0 56 28 28 0 0 1 0-56Z" fill="none" stroke="url(#crust)" stroke-width="7"/>
  <path d="M48 27a21 21 0 1 1 0 42 21 21 0 0 1 0-42Z" fill="none" stroke="#221f1d" stroke-width="15"/>
  <path d="M48 27a21 21 0 0 1 18 10" fill="none" stroke="url(#cheese)" stroke-width="15" stroke-linecap="round"/>
  <path d="M66 37a21 21 0 0 1-8 29" fill="none" stroke="url(#sauce)" stroke-width="15" stroke-linecap="round"/>
  <path d="M58 66a21 21 0 0 1-28-16" fill="none" stroke="url(#cheese)" stroke-width="15" stroke-linecap="round" opacity="0.9"/>
  <circle cx="48" cy="48" r="15" fill="#0b0b0c"/>
  <circle cx="48" cy="48" r="16" fill="none" stroke="#312720" stroke-width="2"/>
</svg>
